<?xml version="1.0"?>
<svg xmlns="http://www.w3.org/2000/svg" viewBox="0 0 800 800">
  <rect width="800" height="800" rx="120" fill="#ffffff"></rect>
  <polygon fill="#09090b" points="408.28,305.36 490.59,61.93 440.15,313.9 458.49,325.14 580.31,219.69 474.86,341.51 486.1,359.85 738.07,309.41 494.64,391.72 494.08,413.22 646.31,466 488.08,435.59 477.82,454.49 647.49,647.49 454.49,477.82 435.59,488.08 466,646.31 413.22,494.08 391.72,494.64 309.41,738.07 359.85,486.1 341.51,474.86 219.69,580.31 325.14,458.49 313.9,440.15 61.93,490.59 305.36,408.28 305.92,386.78 153.69,334 311.92,364.41 322.18,345.51 152.51,152.51 345.51,322.18 364.41,311.92 334,153.69 386.78,305.92"></polygon>
</svg>